<svg width="508" height="121" viewBox="0 0 508 121" fill="none" xmlns="http://www.w3.org/2000/svg">
<rect width="508" height="121" fill="#FF0000"/>
<path d="M221.612 41.728C226.092 41.728 229.356 42.608 231.404 44.368C233.452 46.128 234.476 48.608 234.476 51.808C234.476 53.216 234.236 54.576 233.756 55.888C233.308 57.168 232.556 58.32 231.5 59.344C230.444 60.368 229.036 61.184 227.276 61.792C225.516 62.368 223.356 62.656 220.796 62.656H216.86V76H212.54V41.728H221.612ZM221.228 45.424H216.86V58.96H220.316C222.492 58.96 224.3 58.736 225.74 58.288C227.18 57.808 228.252 57.056 228.956 56.032C229.66 55.008 230.012 53.664 230.012 52C230.012 49.792 229.308 48.144 227.9 47.056C226.492 45.968 224.268 45.424 221.228 45.424ZM267.715 63.088C267.715 65.232 267.427 67.136 266.851 68.8C266.307 70.432 265.507 71.824 264.451 72.976C263.427 74.128 262.163 75.008 260.659 75.616C259.187 76.192 257.539 76.48 255.715 76.48C254.019 76.48 252.451 76.192 251.011 75.616C249.571 75.008 248.323 74.128 247.267 72.976C246.211 71.824 245.379 70.432 244.771 68.8C244.195 67.136 243.907 65.232 243.907 63.088C243.907 60.24 244.387 57.84 245.347 55.888C246.307 53.904 247.683 52.4 249.475 51.376C251.267 50.32 253.395 49.792 255.859 49.792C258.195 49.792 260.243 50.32 262.003 51.376C263.795 52.4 265.187 53.904 266.179 55.888C267.203 57.84 267.715 60.24 267.715 63.088ZM248.275 63.088C248.275 65.104 248.531 66.864 249.043 68.368C249.587 69.84 250.419 70.976 251.539 71.776C252.659 72.576 254.083 72.976 255.811 72.976C257.539 72.976 258.963 72.576 260.083 71.776C261.203 70.976 262.019 69.84 262.531 68.368C263.075 66.864 263.347 65.104 263.347 63.088C263.347 61.04 263.075 59.296 262.531 57.856C261.987 56.416 261.155 55.312 260.035 54.544C258.947 53.744 257.523 53.344 255.763 53.344C253.139 53.344 251.235 54.208 250.051 55.936C248.867 57.664 248.275 60.048 248.275 63.088ZM290.729 49.792C291.209 49.792 291.721 49.824 292.265 49.888C292.841 49.92 293.337 49.984 293.753 50.08L293.225 53.968C292.809 53.872 292.345 53.792 291.833 53.728C291.353 53.664 290.889 53.632 290.441 53.632C289.449 53.632 288.505 53.84 287.609 54.256C286.713 54.672 285.913 55.264 285.209 56.032C284.505 56.768 283.945 57.664 283.529 58.72C283.145 59.776 282.953 60.96 282.953 62.272V76H278.729V50.272H282.185L282.665 54.976H282.857C283.401 54.016 284.057 53.152 284.825 52.384C285.593 51.584 286.473 50.96 287.465 50.512C288.457 50.032 289.545 49.792 290.729 49.792ZM311.469 73.024C312.109 73.024 312.765 72.976 313.437 72.88C314.109 72.752 314.653 72.624 315.069 72.496V75.712C314.621 75.936 313.981 76.112 313.149 76.24C312.317 76.4 311.517 76.48 310.749 76.48C309.405 76.48 308.157 76.256 307.005 75.808C305.885 75.328 304.973 74.512 304.269 73.36C303.565 72.208 303.213 70.592 303.213 68.512V53.536H299.565V51.52L303.261 49.84L304.941 44.368H307.437V50.272H314.877V53.536H307.437V68.416C307.437 69.984 307.805 71.152 308.541 71.92C309.309 72.656 310.285 73.024 311.469 73.024ZM336.397 53.536H329.917V76H325.693V53.536H321.181V51.568L325.693 50.128V48.64C325.693 46.432 326.013 44.64 326.653 43.264C327.325 41.888 328.285 40.88 329.533 40.24C330.781 39.6 332.285 39.28 334.045 39.28C335.069 39.28 335.997 39.376 336.829 39.568C337.693 39.728 338.429 39.92 339.037 40.144L337.933 43.456C337.421 43.296 336.829 43.136 336.157 42.976C335.485 42.816 334.797 42.736 334.093 42.736C332.685 42.736 331.629 43.216 330.925 44.176C330.253 45.104 329.917 46.576 329.917 48.592V50.272H336.397V53.536ZM367.729 63.088C367.729 65.232 367.441 67.136 366.865 68.8C366.321 70.432 365.521 71.824 364.465 72.976C363.441 74.128 362.177 75.008 360.673 75.616C359.201 76.192 357.553 76.48 355.729 76.48C354.033 76.48 352.465 76.192 351.025 75.616C349.585 75.008 348.337 74.128 347.281 72.976C346.225 71.824 345.393 70.432 344.785 68.8C344.209 67.136 343.921 65.232 343.921 63.088C343.921 60.24 344.401 57.84 345.361 55.888C346.321 53.904 347.697 52.4 349.489 51.376C351.281 50.32 353.409 49.792 355.873 49.792C358.209 49.792 360.257 50.32 362.017 51.376C363.809 52.4 365.201 53.904 366.193 55.888C367.217 57.84 367.729 60.24 367.729 63.088ZM348.289 63.088C348.289 65.104 348.545 66.864 349.057 68.368C349.601 69.84 350.433 70.976 351.553 71.776C352.673 72.576 354.097 72.976 355.825 72.976C357.553 72.976 358.977 72.576 360.097 71.776C361.217 70.976 362.033 69.84 362.545 68.368C363.089 66.864 363.361 65.104 363.361 63.088C363.361 61.04 363.089 59.296 362.545 57.856C362.001 56.416 361.169 55.312 360.049 54.544C358.961 53.744 357.537 53.344 355.777 53.344C353.153 53.344 351.249 54.208 350.065 55.936C348.881 57.664 348.289 60.048 348.289 63.088ZM382.967 76H378.743V39.52H382.967V76ZM399.662 50.272V76H395.438V50.272H399.662ZM397.598 40.624C398.238 40.624 398.798 40.848 399.278 41.296C399.79 41.712 400.046 42.384 400.046 43.312C400.046 44.208 399.79 44.88 399.278 45.328C398.798 45.776 398.238 46 397.598 46C396.894 46 396.302 45.776 395.822 45.328C395.342 44.88 395.102 44.208 395.102 43.312C395.102 42.384 395.342 41.712 395.822 41.296C396.302 40.848 396.894 40.624 397.598 40.624ZM434.501 63.088C434.501 65.232 434.213 67.136 433.637 68.8C433.093 70.432 432.293 71.824 431.237 72.976C430.213 74.128 428.949 75.008 427.445 75.616C425.973 76.192 424.325 76.48 422.501 76.48C420.805 76.48 419.237 76.192 417.797 75.616C416.357 75.008 415.109 74.128 414.053 72.976C412.997 71.824 412.165 70.432 411.557 68.8C410.981 67.136 410.693 65.232 410.693 63.088C410.693 60.24 411.173 57.84 412.133 55.888C413.093 53.904 414.469 52.4 416.261 51.376C418.053 50.32 420.181 49.792 422.645 49.792C424.981 49.792 427.029 50.32 428.789 51.376C430.581 52.4 431.973 53.904 432.965 55.888C433.989 57.84 434.501 60.24 434.501 63.088ZM415.061 63.088C415.061 65.104 415.317 66.864 415.829 68.368C416.373 69.84 417.205 70.976 418.325 71.776C419.445 72.576 420.869 72.976 422.597 72.976C424.325 72.976 425.749 72.576 426.869 71.776C427.989 70.976 428.805 69.84 429.317 68.368C429.861 66.864 430.133 65.104 430.133 63.088C430.133 61.04 429.861 59.296 429.317 57.856C428.773 56.416 427.941 55.312 426.821 54.544C425.733 53.744 424.309 53.344 422.549 53.344C419.925 53.344 418.021 54.208 416.837 55.936C415.653 57.664 415.061 60.048 415.061 63.088Z" fill="white"/>
<g clip-path="url(#clip0_2_32)">
<rect width="104" height="40" transform="translate(61 43)" fill="#FF0000"/>
<path d="M85.6863 43C81.6248 43 77.7297 44.6134 74.8579 47.4853L65.4853 56.8579C62.6134 59.7297 61 63.6248 61 67.6863C61 76.1439 67.8562 83 76.3137 83C80.3752 83 84.2703 81.3865 87.1421 78.5147L93.6252 72.0316C93.6253 72.0317 93.6252 72.0315 93.6252 72.0316L112.515 53.1421C113.886 51.7705 115.747 51 117.686 51C120.934 51 123.687 53.1165 124.641 56.0454L130.603 50.0839C127.883 45.8245 123.115 43 117.686 43C113.625 43 109.73 44.6134 106.858 47.4853L81.4853 72.8579C80.1137 74.2295 78.2535 75 76.3137 75C72.2745 75 69 71.7256 69 67.6863C69 65.7465 69.7705 63.8863 71.1421 62.5147L80.5147 53.1421C81.8863 51.7705 83.7465 51 85.6863 51C88.9339 51 91.6869 53.1166 92.6415 56.0456L98.6031 50.0841C95.8835 45.8245 91.1148 43 85.6863 43Z" fill="white"/>
<path d="M113.485 72.8579C112.114 74.2295 110.253 75 108.314 75C105.067 75 102.314 72.884 101.359 69.9556L95.3976 75.9169C98.1173 80.1759 102.886 83 108.314 83C112.375 83 116.27 81.3865 119.142 78.5147L144.515 53.1421C145.886 51.7705 147.747 51 149.686 51C153.726 51 157 54.2745 157 58.3137C157 60.2535 156.229 62.1137 154.858 63.4853L145.485 72.8579C144.114 74.2295 142.253 75 140.314 75C137.066 75 134.313 72.8836 133.359 69.9549L127.397 75.9164C130.117 80.1757 134.885 83 140.314 83C144.375 83 148.27 81.3865 151.142 78.5147L160.515 69.1421C163.387 66.2703 165 62.3752 165 58.3137C165 49.8562 158.144 43 149.686 43C145.625 43 141.73 44.6134 138.858 47.4853L113.485 72.8579Z" fill="#394149"/>
</g>
<circle cx="445.5" cy="39.5" r="6.5" fill="white"/>
<defs>
<clipPath id="clip0_2_32">
<rect width="104" height="40" fill="white" transform="translate(61 43)"/>
</clipPath>
</defs>
</svg>
