<svg width="508" height="121" viewBox="0 0 508 121" fill="none" xmlns="http://www.w3.org/2000/svg">
<rect width="508" height="121" fill="#FF0000"/>
<path d="M191.817 42.4531H197.442V77H191.817V42.4531ZM201.755 42.4531C203.223 42.4531 204.677 42.6875 206.114 43.1562C207.552 43.625 208.833 44.3281 209.958 45.2656C211.114 46.2031 212.036 47.3438 212.723 48.6875C213.442 50 213.802 51.4844 213.802 53.1406C213.802 54.8906 213.505 56.4844 212.911 57.9219C212.317 59.3281 211.489 60.5156 210.427 61.4844C209.364 62.4531 208.083 63.2031 206.583 63.7344C205.083 64.2656 203.427 64.5312 201.614 64.5312H199.364V60.4062H202.598C203.286 60.4062 203.958 60.2969 204.614 60.0781C205.302 59.8281 205.927 59.4375 206.489 58.9062C207.052 58.375 207.505 57.6406 207.848 56.7031C208.192 55.7344 208.364 54.5469 208.364 53.1406C208.364 52.5781 208.286 51.9375 208.13 51.2188C207.973 50.4688 207.645 49.7656 207.145 49.1094C206.677 48.4219 206.005 47.8594 205.13 47.4219C204.255 46.9531 203.098 46.7188 201.661 46.7188H199.364V42.4531H201.755ZM239.564 50.4219C241.283 50.5156 242.845 50.9375 244.252 51.6875C245.658 52.4062 246.83 53.375 247.767 54.5938C248.736 55.7812 249.486 57.1719 250.017 58.7656C250.548 60.3594 250.814 62.0625 250.814 63.875C250.814 65.6875 250.533 67.3906 249.97 68.9844C249.439 70.5469 248.689 71.9219 247.72 73.1094C246.752 74.2656 245.564 75.2031 244.158 75.9219C242.752 76.6406 241.22 77.0625 239.564 77.1875V72.6875C241.127 72.3438 242.392 71.3594 243.361 69.7344C244.361 68.1094 244.861 66.1562 244.861 63.875C244.861 62.7188 244.736 61.6406 244.486 60.6406C244.267 59.6094 243.923 58.6875 243.455 57.875C242.986 57.0625 242.423 56.3906 241.767 55.8594C241.111 55.3281 240.377 54.9844 239.564 54.8281V50.4219ZM226.486 63.7812C226.486 61.9688 226.752 60.2812 227.283 58.7188C227.814 57.1562 228.564 55.7969 229.533 54.6406C230.533 53.4531 231.72 52.5 233.095 51.7812C234.47 51.0625 235.986 50.625 237.642 50.4688V54.8281C236.08 55.1719 234.83 56.1562 233.892 57.7812C232.955 59.4062 232.486 61.3594 232.486 63.6406C232.486 64.7969 232.595 65.8906 232.814 66.9219C233.064 67.9531 233.408 68.875 233.845 69.6875C234.283 70.5 234.814 71.1719 235.439 71.7031C236.095 72.2344 236.83 72.5625 237.642 72.6875V77.1875C235.923 77.0625 234.377 76.6406 233.002 75.9219C231.627 75.1719 230.455 74.2031 229.486 73.0156C228.517 71.8281 227.767 70.4375 227.236 68.8438C226.736 67.25 226.486 65.5625 226.486 63.7812ZM270.436 50.5625L271.045 53.2812V67.625V67.7188V77H265.373V50.5625H270.436ZM272.967 51.7344C273.748 51.2969 274.686 50.9688 275.78 50.75C276.873 50.5 278.358 50.375 280.233 50.375V56.2812C279.358 56.0312 278.295 55.8906 277.045 55.8594C276.358 55.8594 275.655 55.9219 274.936 56.0469C274.248 56.1406 273.592 56.2969 272.967 56.5156V51.7344ZM301.027 68.9844C301.027 70.0469 301.167 70.875 301.448 71.4688C301.73 72.0625 302.12 72.5156 302.62 72.8281C303.152 73.1406 303.73 73.3438 304.355 73.4375C305.011 73.5 305.698 73.5312 306.417 73.5312V77C306.011 77.0625 305.605 77.1094 305.198 77.1406C304.855 77.1719 304.433 77.1875 303.933 77.1875C303.464 77.2188 302.995 77.2344 302.527 77.2344C302.058 77.2344 301.573 77.2188 301.073 77.1875C300.605 77.1562 300.198 77.1094 299.855 77.0469C298.792 76.8594 297.964 76.4062 297.37 75.6875C296.777 74.9375 296.323 74.125 296.011 73.25C295.73 72.3438 295.542 71.4688 295.448 70.625C295.386 69.7812 295.355 69.125 295.355 68.6562V54.4062H291.886V50.5625H295.355V43.0625H301.027V50.5625H305.245V54.4062H301.027V68.9844ZM331.57 44.5156C330.945 44.5156 330.414 44.6719 329.977 44.9844C329.57 45.2969 329.227 45.7344 328.945 46.2969C328.664 46.8594 328.461 47.5156 328.336 48.2656C328.211 48.9844 328.133 49.75 328.102 50.5625H332.18V54.4062H328.008V56.6562V77H322.289V56.6562V54.4062H318.82V50.5625H322.383C322.477 49.2188 322.664 47.9375 322.945 46.7188C323.227 45.4688 323.664 44.3906 324.258 43.4844C324.883 42.5469 325.711 41.7969 326.742 41.2344C327.805 40.6719 329.133 40.3906 330.727 40.3906C331.195 40.3906 331.695 40.4375 332.227 40.5312C332.758 40.5938 333.273 40.6875 333.773 40.8125C334.305 40.9062 334.789 41.0312 335.227 41.1875C335.664 41.3438 336.008 41.5156 336.258 41.7031L334.43 45.0781C333.992 44.8281 333.461 44.6719 332.836 44.6094C332.242 44.5469 331.82 44.5156 331.57 44.5156ZM359.583 50.4219C361.302 50.5156 362.864 50.9375 364.27 51.6875C365.677 52.4062 366.848 53.375 367.786 54.5938C368.755 55.7812 369.505 57.1719 370.036 58.7656C370.567 60.3594 370.833 62.0625 370.833 63.875C370.833 65.6875 370.552 67.3906 369.989 68.9844C369.458 70.5469 368.708 71.9219 367.739 73.1094C366.77 74.2656 365.583 75.2031 364.177 75.9219C362.77 76.6406 361.239 77.0625 359.583 77.1875V72.6875C361.145 72.3438 362.411 71.3594 363.38 69.7344C364.38 68.1094 364.88 66.1562 364.88 63.875C364.88 62.7188 364.755 61.6406 364.505 60.6406C364.286 59.6094 363.942 58.6875 363.473 57.875C363.005 57.0625 362.442 56.3906 361.786 55.8594C361.13 55.3281 360.395 54.9844 359.583 54.8281V50.4219ZM346.505 63.7812C346.505 61.9688 346.77 60.2812 347.302 58.7188C347.833 57.1562 348.583 55.7969 349.552 54.6406C350.552 53.4531 351.739 52.5 353.114 51.7812C354.489 51.0625 356.005 50.625 357.661 50.4688V54.8281C356.098 55.1719 354.848 56.1562 353.911 57.7812C352.973 59.4062 352.505 61.3594 352.505 63.6406C352.505 64.7969 352.614 65.8906 352.833 66.9219C353.083 67.9531 353.427 68.875 353.864 69.6875C354.302 70.5 354.833 71.1719 355.458 71.7031C356.114 72.2344 356.848 72.5625 357.661 72.6875V77.1875C355.942 77.0625 354.395 76.6406 353.02 75.9219C351.645 75.1719 350.473 74.2031 349.505 73.0156C348.536 71.8281 347.786 70.4375 347.255 68.8438C346.755 67.25 346.505 65.5625 346.505 63.7812ZM391.017 68.9375C391.017 70 391.158 70.8438 391.439 71.4688C391.72 72.0625 392.111 72.5156 392.611 72.8281C393.111 73.1094 393.673 73.2969 394.298 73.3906C394.955 73.4844 395.658 73.5312 396.408 73.5312V77C396.002 77.0625 395.58 77.1094 395.142 77.1406C394.798 77.1719 394.392 77.1875 393.923 77.1875C393.455 77.2188 392.986 77.2344 392.517 77.2344C392.048 77.2344 391.58 77.2188 391.111 77.1875C390.642 77.1562 390.22 77.1094 389.845 77.0469C388.783 76.8281 387.955 76.3594 387.361 75.6406C386.767 74.9219 386.314 74.125 386.002 73.25C385.689 72.3438 385.486 71.4688 385.392 70.625C385.33 69.7812 385.298 69.125 385.298 68.6562V68.0938V40.5781H391.017V68.9375ZM415.28 77H409.561V50.5625H415.28V77ZM415.795 42.125C415.795 43.0625 415.467 43.8594 414.811 44.5156C414.155 45.1406 413.358 45.4531 412.42 45.4531C411.483 45.4531 410.686 45.125 410.03 44.4688C409.405 43.8125 409.092 43.0312 409.092 42.125C409.092 41.1875 409.42 40.3906 410.077 39.7344C410.733 39.0781 411.514 38.75 412.42 38.75C413.358 38.75 414.155 39.0781 414.811 39.7344C415.467 40.3906 415.795 41.1875 415.795 42.125ZM442.87 50.4219C444.589 50.5156 446.152 50.9375 447.558 51.6875C448.964 52.4062 450.136 53.375 451.073 54.5938C452.042 55.7812 452.792 57.1719 453.323 58.7656C453.855 60.3594 454.12 62.0625 454.12 63.875C454.12 65.6875 453.839 67.3906 453.277 68.9844C452.745 70.5469 451.995 71.9219 451.027 73.1094C450.058 74.2656 448.87 75.2031 447.464 75.9219C446.058 76.6406 444.527 77.0625 442.87 77.1875V72.6875C444.433 72.3438 445.698 71.3594 446.667 69.7344C447.667 68.1094 448.167 66.1562 448.167 63.875C448.167 62.7188 448.042 61.6406 447.792 60.6406C447.573 59.6094 447.23 58.6875 446.761 57.875C446.292 57.0625 445.73 56.3906 445.073 55.8594C444.417 55.3281 443.683 54.9844 442.87 54.8281V50.4219ZM429.792 63.7812C429.792 61.9688 430.058 60.2812 430.589 58.7188C431.12 57.1562 431.87 55.7969 432.839 54.6406C433.839 53.4531 435.027 52.5 436.402 51.7812C437.777 51.0625 439.292 50.625 440.948 50.4688V54.8281C439.386 55.1719 438.136 56.1562 437.198 57.7812C436.261 59.4062 435.792 61.3594 435.792 63.6406C435.792 64.7969 435.902 65.8906 436.12 66.9219C436.37 67.9531 436.714 68.875 437.152 69.6875C437.589 70.5 438.12 71.1719 438.745 71.7031C439.402 72.2344 440.136 72.5625 440.948 72.6875V77.1875C439.23 77.0625 437.683 76.6406 436.308 75.9219C434.933 75.1719 433.761 74.2031 432.792 73.0156C431.823 71.8281 431.073 70.4375 430.542 68.8438C430.042 67.25 429.792 65.5625 429.792 63.7812Z" fill="white"/>
<g clip-path="url(#clip0_2_32)">
<rect width="104" height="40" transform="translate(61 43)" fill="#FF0000"/>
<path d="M85.6863 43C81.6248 43 77.7297 44.6134 74.8579 47.4853L65.4853 56.8579C62.6134 59.7297 61 63.6248 61 67.6863C61 76.1439 67.8562 83 76.3137 83C80.3752 83 84.2703 81.3865 87.1421 78.5147L93.6252 72.0316C93.6253 72.0317 93.6252 72.0315 93.6252 72.0316L112.515 53.1421C113.886 51.7705 115.747 51 117.686 51C120.934 51 123.687 53.1165 124.641 56.0454L130.603 50.0839C127.883 45.8245 123.115 43 117.686 43C113.625 43 109.73 44.6134 106.858 47.4853L81.4853 72.8579C80.1137 74.2295 78.2535 75 76.3137 75C72.2745 75 69 71.7256 69 67.6863C69 65.7465 69.7705 63.8863 71.1421 62.5147L80.5147 53.1421C81.8863 51.7705 83.7465 51 85.6863 51C88.9339 51 91.6869 53.1166 92.6415 56.0456L98.6031 50.0841C95.8835 45.8245 91.1148 43 85.6863 43Z" fill="#394149"/>
<path d="M113.485 72.8579C112.114 74.2295 110.253 75 108.314 75C105.067 75 102.314 72.884 101.359 69.9556L95.3976 75.9169C98.1173 80.1759 102.886 83 108.314 83C112.375 83 116.27 81.3865 119.142 78.5147L144.515 53.1421C145.886 51.7705 147.747 51 149.686 51C153.726 51 157 54.2745 157 58.3137C157 60.2535 156.229 62.1137 154.858 63.4853L145.485 72.8579C144.114 74.2295 142.253 75 140.314 75C137.066 75 134.313 72.8836 133.359 69.9549L127.397 75.9164C130.117 80.1757 134.885 83 140.314 83C144.375 83 148.27 81.3865 151.142 78.5147L160.515 69.1421C163.387 66.2703 165 62.3752 165 58.3137C165 49.8562 158.144 43 149.686 43C145.625 43 141.73 44.6134 138.858 47.4853L113.485 72.8579Z" fill="white"/>
</g>
<circle cx="464.5" cy="38.5" r="6.5" fill="white"/>
<defs>
<clipPath id="clip0_2_32">
<rect width="104" height="40" fill="white" transform="translate(61 43)"/>
</clipPath>
</defs>
</svg>
