<svg width="290" height="69" viewBox="0 0 290 69" fill="none" xmlns="http://www.w3.org/2000/svg">
<rect width="290" height="69" fill="white"/>
<path d="M107.873 24.2526H111.154V44.405H107.873V24.2526ZM113.67 24.2526C114.526 24.2526 115.374 24.3893 116.213 24.6628C117.051 24.9362 117.798 25.3464 118.455 25.8932C119.129 26.4401 119.667 27.1055 120.068 27.8893C120.487 28.655 120.697 29.5208 120.697 30.487C120.697 31.5078 120.524 32.4375 120.177 33.276C119.831 34.0964 119.348 34.7891 118.728 35.3542C118.108 35.9193 117.361 36.3568 116.486 36.6667C115.611 36.9766 114.645 37.1315 113.588 37.1315H112.275V34.7253H114.162C114.563 34.7253 114.955 34.6615 115.338 34.5339C115.739 34.388 116.103 34.1602 116.431 33.8503C116.759 33.5404 117.024 33.112 117.224 32.5651C117.425 32 117.525 31.3073 117.525 30.487C117.525 30.1589 117.479 29.7852 117.388 29.3659C117.297 28.9284 117.106 28.5182 116.814 28.1354C116.541 27.7344 116.149 27.4063 115.638 27.151C115.128 26.8776 114.453 26.7409 113.615 26.7409H112.275V24.2526H113.67ZM135.725 28.901C136.728 28.9557 137.639 29.2018 138.459 29.6393C139.28 30.0586 139.963 30.6237 140.51 31.3346C141.075 32.0273 141.513 32.8385 141.823 33.7682C142.133 34.6979 142.288 35.6914 142.288 36.7487C142.288 37.806 142.123 38.7995 141.795 39.7292C141.485 40.6406 141.048 41.4427 140.483 42.1354C139.918 42.8099 139.225 43.3568 138.405 43.776C137.584 44.1953 136.691 44.4414 135.725 44.5143V41.8893C136.636 41.6888 137.375 41.1146 137.94 40.1667C138.523 39.2188 138.815 38.0794 138.815 36.7487C138.815 36.0742 138.742 35.4453 138.596 34.862C138.469 34.2604 138.268 33.7227 137.995 33.2487C137.721 32.7747 137.393 32.3828 137.01 32.0729C136.627 31.763 136.199 31.5625 135.725 31.4714V28.901ZM128.096 36.694C128.096 35.6367 128.251 34.6523 128.561 33.7409C128.871 32.8294 129.308 32.0365 129.873 31.362C130.457 30.6693 131.15 30.1133 131.952 29.694C132.754 29.2747 133.638 29.0195 134.604 28.9284V31.4714C133.692 31.6719 132.963 32.2461 132.416 33.194C131.87 34.1419 131.596 35.2813 131.596 36.612C131.596 37.2865 131.66 37.9245 131.788 38.526C131.933 39.1276 132.134 39.6654 132.389 40.1393C132.644 40.6133 132.954 41.0052 133.319 41.3151C133.702 41.625 134.13 41.8164 134.604 41.8893V44.5143C133.601 44.4414 132.699 44.1953 131.897 43.776C131.095 43.3385 130.411 42.7734 129.846 42.0807C129.281 41.388 128.844 40.5768 128.534 39.6471C128.242 38.7175 128.096 37.7331 128.096 36.694ZM153.734 28.9831L154.089 30.569V38.9362V38.9909V44.405H150.781V28.9831H153.734ZM155.21 29.6667C155.666 29.4115 156.213 29.2201 156.851 29.0925C157.489 28.9466 158.355 28.8737 159.448 28.8737V32.319C158.938 32.1732 158.318 32.0912 157.589 32.0729C157.188 32.0729 156.778 32.1094 156.359 32.1823C155.958 32.237 155.575 32.3281 155.21 32.4557V29.6667ZM171.578 39.7292C171.578 40.349 171.66 40.832 171.824 41.1784C171.988 41.5247 172.216 41.7891 172.508 41.9714C172.818 42.1537 173.155 42.2721 173.52 42.3268C173.902 42.3633 174.303 42.3815 174.723 42.3815V44.405C174.486 44.4414 174.249 44.4688 174.012 44.487C173.811 44.5052 173.565 44.5143 173.273 44.5143C173 44.5326 172.727 44.5417 172.453 44.5417C172.18 44.5417 171.897 44.5326 171.605 44.5143C171.332 44.4961 171.095 44.4688 170.895 44.4323C170.275 44.3229 169.792 44.0586 169.445 43.6393C169.099 43.2018 168.835 42.7279 168.652 42.2175C168.488 41.6888 168.379 41.1784 168.324 40.6862C168.288 40.194 168.27 39.8112 168.27 39.5378V31.2253H166.246V28.9831H168.27V24.6081H171.578V28.9831H174.039V31.2253H171.578V39.7292ZM189.395 25.4557C189.031 25.4557 188.721 25.5469 188.466 25.7292C188.229 25.9115 188.028 26.1667 187.864 26.4948C187.7 26.8229 187.582 27.2057 187.509 27.6432C187.436 28.0625 187.39 28.5091 187.372 28.9831H189.751V31.2253H187.317V32.5378V44.405H183.981V32.5378V31.2253H181.958V28.9831H184.036C184.091 28.1992 184.2 27.4518 184.364 26.7409C184.528 26.0117 184.783 25.3828 185.13 24.8542C185.494 24.3073 185.977 23.8698 186.579 23.5417C187.199 23.2135 187.973 23.0495 188.903 23.0495C189.177 23.0495 189.468 23.0768 189.778 23.1315C190.088 23.168 190.389 23.2227 190.681 23.2956C190.99 23.3503 191.273 23.4232 191.528 23.5143C191.783 23.6055 191.984 23.7057 192.13 23.8151L191.063 25.7839C190.808 25.638 190.498 25.5469 190.134 25.5104C189.787 25.474 189.541 25.4557 189.395 25.4557ZM205.736 28.901C206.739 28.9557 207.65 29.2018 208.47 29.6393C209.291 30.0586 209.974 30.6237 210.521 31.3346C211.086 32.0273 211.524 32.8385 211.834 33.7682C212.144 34.6979 212.298 35.6914 212.298 36.7487C212.298 37.806 212.134 38.7995 211.806 39.7292C211.496 40.6406 211.059 41.4427 210.494 42.1354C209.929 42.8099 209.236 43.3568 208.416 43.776C207.595 44.1953 206.702 44.4414 205.736 44.5143V41.8893C206.647 41.6888 207.386 41.1146 207.951 40.1667C208.534 39.2188 208.826 38.0794 208.826 36.7487C208.826 36.0742 208.753 35.4453 208.607 34.862C208.479 34.2604 208.279 33.7227 208.006 33.2487C207.732 32.7747 207.404 32.3828 207.021 32.0729C206.638 31.763 206.21 31.5625 205.736 31.4714V28.901ZM198.107 36.694C198.107 35.6367 198.262 34.6523 198.572 33.7409C198.882 32.8294 199.319 32.0365 199.884 31.362C200.468 30.6693 201.16 30.1133 201.963 29.694C202.765 29.2747 203.649 29.0195 204.615 28.9284V31.4714C203.703 31.6719 202.974 32.2461 202.427 33.194C201.881 34.1419 201.607 35.2813 201.607 36.612C201.607 37.2865 201.671 37.9245 201.798 38.526C201.944 39.1276 202.145 39.6654 202.4 40.1393C202.655 40.6133 202.965 41.0052 203.33 41.3151C203.713 41.625 204.141 41.8164 204.615 41.8893V44.5143C203.612 44.4414 202.71 44.1953 201.908 43.776C201.106 43.3385 200.422 42.7734 199.857 42.0807C199.292 41.388 198.854 40.5768 198.545 39.6471C198.253 38.7175 198.107 37.7331 198.107 36.694ZM224.073 39.7018C224.073 40.3216 224.155 40.8138 224.319 41.1784C224.483 41.5247 224.711 41.7891 225.002 41.9714C225.294 42.1354 225.622 42.2448 225.987 42.2995C226.37 42.3542 226.78 42.3815 227.217 42.3815V44.405C226.98 44.4414 226.734 44.4688 226.479 44.487C226.278 44.5052 226.041 44.5143 225.768 44.5143C225.495 44.5326 225.221 44.5417 224.948 44.5417C224.674 44.5417 224.401 44.5326 224.127 44.5143C223.854 44.4961 223.608 44.4688 223.389 44.4323C222.769 44.3047 222.286 44.0313 221.94 43.612C221.594 43.1927 221.329 42.7279 221.147 42.2175C220.965 41.6888 220.846 41.1784 220.791 40.6862C220.755 40.194 220.737 39.8112 220.737 39.5378V39.2096V23.1589H224.073V39.7018ZM238.226 44.405H234.89V28.9831H238.226V44.405ZM238.527 24.0612C238.527 24.6081 238.335 25.0729 237.952 25.4557C237.57 25.8203 237.105 26.0026 236.558 26.0026C236.011 26.0026 235.546 25.8112 235.163 25.4284C234.799 25.0456 234.616 24.5898 234.616 24.0612C234.616 23.5143 234.808 23.0495 235.191 22.6667C235.573 22.2839 236.029 22.0925 236.558 22.0925C237.105 22.0925 237.57 22.2839 237.952 22.6667C238.335 23.0495 238.527 23.5143 238.527 24.0612ZM254.32 28.901C255.323 28.9557 256.234 29.2018 257.055 29.6393C257.875 30.0586 258.559 30.6237 259.106 31.3346C259.671 32.0273 260.108 32.8385 260.418 33.7682C260.728 34.6979 260.883 35.6914 260.883 36.7487C260.883 37.806 260.719 38.7995 260.391 39.7292C260.081 40.6406 259.643 41.4427 259.078 42.1354C258.513 42.8099 257.82 43.3568 257 43.776C256.18 44.1953 255.287 44.4414 254.32 44.5143V41.8893C255.232 41.6888 255.97 41.1146 256.535 40.1667C257.119 39.2188 257.41 38.0794 257.41 36.7487C257.41 36.0742 257.337 35.4453 257.191 34.862C257.064 34.2604 256.863 33.7227 256.59 33.2487C256.316 32.7747 255.988 32.3828 255.606 32.0729C255.223 31.763 254.794 31.5625 254.32 31.4714V28.901ZM246.691 36.694C246.691 35.6367 246.846 34.6523 247.156 33.7409C247.466 32.8294 247.904 32.0365 248.469 31.362C249.052 30.6693 249.745 30.1133 250.547 29.694C251.349 29.2747 252.233 29.0195 253.199 28.9284V31.4714C252.288 31.6719 251.559 32.2461 251.012 33.194C250.465 34.1419 250.191 35.2813 250.191 36.612C250.191 37.2865 250.255 37.9245 250.383 38.526C250.529 39.1276 250.729 39.6654 250.984 40.1393C251.24 40.6133 251.55 41.0052 251.914 41.3151C252.297 41.625 252.725 41.8164 253.199 41.8893V44.5143C252.197 44.4414 251.294 44.1953 250.492 43.776C249.69 43.3385 249.007 42.7734 248.441 42.0807C247.876 41.388 247.439 40.5768 247.129 39.6471C246.837 38.7175 246.691 37.7331 246.691 36.694Z" fill="#FF0000"/>
<g clip-path="url(#clip0_2_32)">
<rect width="59.3701" height="22.8099" transform="translate(34.8228 24.5207)" fill="white"/>
<path d="M48.9154 24.5207C46.5968 24.5207 44.3733 25.4407 42.7338 27.0784L37.3833 32.4231C35.7439 34.0608 34.8228 36.2819 34.8228 38.598C34.8228 43.4209 38.7368 47.3306 43.5649 47.3306C45.8835 47.3306 48.107 46.4105 49.7465 44.7728L53.4475 41.0759C53.4475 41.0758 53.4475 41.0759 53.4475 41.0759L64.2308 30.3042C65.0138 29.522 66.0758 29.0826 67.1831 29.0826C69.037 29.0826 70.6087 30.2896 71.1536 31.9598L74.5568 28.5603C73.0043 26.1313 70.282 24.5207 67.1831 24.5207C64.8645 24.5207 62.641 25.4407 61.0015 27.0784L46.5172 41.547C45.7342 42.3292 44.6722 42.7686 43.5649 42.7686C41.259 42.7686 39.3898 40.9014 39.3898 38.598C39.3898 37.4918 39.8296 36.431 40.6126 35.6489L45.9631 30.3042C46.7461 29.522 47.8081 29.0826 48.9154 29.0826C50.7693 29.0826 52.341 30.2897 52.8859 31.9599L56.2891 28.5603C54.7366 26.1313 52.0143 24.5207 48.9154 24.5207Z" fill="#394149"/>
<path d="M64.7849 41.547C64.0019 42.3292 62.94 42.7686 61.8326 42.7686C59.979 42.7686 58.4074 41.5619 57.8624 39.892L54.4593 43.2915C56.0119 45.7201 58.734 47.3306 61.8326 47.3306C64.1512 47.3306 66.3748 46.4105 68.0142 44.7728L82.4985 30.3042C83.2815 29.522 84.3435 29.0826 85.4508 29.0826C87.7567 29.0826 89.626 30.9499 89.626 33.2533C89.626 34.3594 89.1861 35.4202 88.4031 36.2024L83.0526 41.547C82.2696 42.3292 81.2077 42.7686 80.1004 42.7686C78.2466 42.7686 76.6749 41.5617 76.1299 39.8917L72.7268 43.2912C74.2794 45.72 77.0015 47.3306 80.1004 47.3306C82.4189 47.3306 84.6425 46.4105 86.2819 44.7728L91.6324 39.4282C93.2718 37.7905 94.1929 35.5693 94.1929 33.2533C94.1929 28.4304 90.279 24.5207 85.4508 24.5207C83.1323 24.5207 80.9087 25.4407 79.2693 27.0784L64.7849 41.547Z" fill="#FF0000"/>
</g>
<ellipse cx="265.167" cy="21.9546" rx="3.71063" ry="3.70661" fill="#FF0000"/>
<defs>
<clipPath id="clip0_2_32">
<rect width="59.3701" height="22.8099" fill="white" transform="translate(34.8228 24.5207)"/>
</clipPath>
</defs>
</svg>
